<svg aria-hidden="true" style="position: absolute; width: 0; height: 0; overflow: hidden;" version="1.1"
    xmlns="http://www.w3.org/2000/svg" xmlns:xlink="http://www.w3.org/1999/xlink">
    <defs>
        <symbol id="dots" viewBox="0 0 20 20">
            <path
                d="M10.001 7.8c-1.215 0-2.201 0.985-2.201 2.2s0.986 2.2 2.201 2.2c1.215 0 2.199-0.985 2.199-2.2s-0.984-2.2-2.199-2.2zM3.001 7.8c-1.215 0-2.201 0.985-2.201 2.2s0.986 2.2 2.201 2.2c1.215 0 2.199-0.986 2.199-2.2s-0.984-2.2-2.199-2.2zM17.001 7.8c-1.215 0-2.201 0.985-2.201 2.2s0.986 2.2 2.201 2.2c1.215 0 2.199-0.985 2.199-2.2s-0.984-2.2-2.199-2.2z">
            </path>
        </symbol>
        <symbol id="bracket-right" viewBox="0 0 26 32">
            <path stroke-linejoin="round" stroke-linecap="round" stroke-miterlimit="4" stroke-width="6.4"
                d="M3.542 3.2l16.826 12.8-16.826 12.8"></path>
        </symbol>
        <symbol id="arrow-right" viewBox="0 0 32 32">
            <path
                d="M16.44 5.94c0.271-0.271 0.646-0.439 1.060-0.439s0.789 0.168 1.060 0.439l8.5 8.5c0.271 0.271 0.439 0.646 0.439 1.060s-0.168 0.789-0.439 1.060l-8.5 8.5c-0.267 0.249-0.627 0.403-1.023 0.403-0.828 0-1.5-0.672-1.5-1.5 0-0.396 0.153-0.755 0.403-1.023l-0.001 0.001 5.94-5.94h-14.88c-0.828 0-1.5-0.672-1.5-1.5s0.672-1.5 1.5-1.5v0h14.88l-5.94-5.94c-0.271-0.271-0.439-0.646-0.439-1.060s0.168-0.789 0.439-1.060l-0 0z">
            </path>
        </symbol>
        <symbol id="quote" viewBox="0 0 43 32">
            <path
                d="M32.014 0c1.928 0 3.75 0.52 5.464 1.561s3.107 2.537 4.178 4.488c1.029 1.951 1.543 4.25 1.543 6.894s-0.643 5.225-1.928 7.74c-0.429 0.91-1.2 2.081-2.315 3.512-1.157 1.43-2.228 2.666-3.214 3.707l-4.050 4.098-2.893-4.813c2.063-1.302 3.824-2.855 5.306-4.646l0.030-0.037c1.542-1.821 2.314-3.49 2.314-5.008 0-0.781-0.171-1.41-0.514-1.886-1.5 1.084-3.172 1.626-5.014 1.626-1.328 0-2.593-0.412-3.793-1.236-1.237-0.782-2.237-1.834-2.935-3.078l-0.022-0.043c-0.771-1.258-1.157-2.558-1.157-3.902 0-1.518 0.45-2.97 1.35-4.358 0.866-1.389 2.011-2.526 3.364-3.356l0.044-0.025c1.37-0.824 2.784-1.236 4.242-1.236zM8.936 0c1.928 0 3.75 0.52 5.464 1.561s3.107 2.536 4.178 4.488c1.029 1.951 1.543 4.25 1.543 6.894 0 1.864-0.236 3.534-0.707 5.008-0.472 1.518-1.286 3.1-2.443 4.748-1.114 1.561-2.164 2.862-3.15 3.902-0.986 1.084-2.7 2.883-5.143 5.398l-2.893-4.813c2.063-1.302 3.824-2.855 5.306-4.646l0.030-0.037c1.542-1.821 2.314-3.49 2.314-5.008 0-0.781-0.172-1.41-0.514-1.886-1.5 1.084-3.172 1.626-5.014 1.626-1.328 0-2.593-0.412-3.793-1.236-1.237-0.782-2.237-1.834-2.935-3.078l-0.022-0.043c-0.771-1.258-1.157-2.558-1.157-3.902 0-1.518 0.429-2.97 1.286-4.358 0.866-1.389 2.011-2.526 3.364-3.356l0.045-0.025c1.37-0.824 2.784-1.236 4.242-1.236z">
            </path>
        </symbol>
        <symbol id="home" viewBox="0 0 35 32">
            <path
                d="M32.64 15.4c0.256-0.274 0.413-0.644 0.413-1.050 0-0.47-0.21-0.89-0.541-1.173l-0.002-0.002-14.773-12.749c-0.319-0.265-0.733-0.425-1.184-0.425-0.466 0-0.892 0.171-1.218 0.454l0.002-0.002-14.821 13.403c-0.316 0.282-0.515 0.69-0.515 1.145 0 0.42 0.169 0.8 0.443 1.077l-0-0 0.373 0.381c0.613 0.635 1.611 0.709 2.224 0.168l1.107-0.979v14.328c0.006 0.879 0.72 1.589 1.6 1.589 0.005 0 0.009-0 0.014-0h5.775c0.004 0 0.009 0 0.013 0 0.88 0 1.594-0.71 1.6-1.589v-10.025h7.371v10.024c-0.013 0.88 0.624 1.589 1.515 1.589h6.123c0.003 0 0.007 0 0.011 0 0.88 0 1.594-0.71 1.6-1.589v-14.126l0.685 0.592c0.376 0.325 1.168 0.064 1.765-0.587l0.421-0.453z">
            </path>
        </symbol>
        <symbol id="github" viewBox="0 0 20 20">
             <path d="M10 .588C4.83.588.588 4.831.588 10c0 4.412 3.096 8.419 7.206 9.412v-3.114c-.407.09-.782.092-1.197-.03-.556-.165-1.008-.535-1.343-1.1-.214-.36-.593-.752-.988-.723l-.097-1.099c.855-.073 1.594.521 2.033 1.259.195.328.42.52.708.605.278.082.577.043.926-.08.087-.698.407-.96.648-1.327-2.451-.366-3.428-1.667-3.816-2.693-.514-1.363-.238-3.066.67-4.142.018-.02.05-.076.038-.114-.417-1.259.09-2.3.11-2.41.48.142.558-.143 2.088.786l.264.159c.11.066.076.028.187.02A7.987 7.987 0 0 1 10 5.131a8.022 8.022 0 0 1 2.002.285l.086.009c-.008-.001.023-.006.075-.037 1.91-1.157 1.842-.779 2.354-.945.019.11.52 1.168.107 2.41-.055.172 1.657 1.74.708 4.257-.388 1.027-1.365 2.327-3.816 2.693.314.48.692.734.69 1.722v3.887c4.11-.993 7.206-5 7.206-9.412C19.412 4.83 15.17.588 10 .588Z"/>
        </symbol>
        <symbol id="telegram" viewBox="0 0 20 16">
            <path d="m8.103 10.375-.318 4.17c.454 0 .651-.183.887-.401l2.13-1.9 4.415 3.017c.81.42 1.38.199 1.598-.695l2.898-12.673h.001c.257-1.118-.433-1.554-1.222-1.28L1.46 6.699c-1.162.42-1.145 1.026-.198 1.3l4.355 1.264 10.115-5.907c.476-.294.908-.132.552.163l-8.181 6.856Z"/>
        </symbol>
        <symbol id="facebook" viewBox="0 0 10 20">
           <path d="M8.916 9.981h-2.61V19.6H2.351V9.98H.471v-3.38h1.88V4.414c0-1.565.74-4.014 3.99-4.014l2.93.012v3.281H7.145c-.348 0-.839.176-.839.922v1.99h2.956L8.916 9.98Z"/>
        </symbol>
        <symbol id="close" viewBox="0 0 32 32">
            <path
                d="M17.88 16l5.733-5.72c0.242-0.242 0.392-0.577 0.392-0.947 0-0.739-0.599-1.339-1.339-1.339-0.37 0-0.704 0.15-0.947 0.392v0l-5.72 5.733-5.72-5.733c-0.242-0.242-0.577-0.392-0.947-0.392-0.739 0-1.339 0.599-1.339 1.339 0 0.37 0.15 0.704 0.392 0.947v0l5.733 5.72-5.733 5.72c-0.244 0.242-0.394 0.577-0.394 0.947s0.151 0.705 0.394 0.947l0 0c0.242 0.244 0.577 0.394 0.947 0.394s0.705-0.151 0.947-0.394l0-0 5.72-5.733 5.72 5.733c0.242 0.244 0.577 0.394 0.947 0.394s0.705-0.151 0.947-0.394l0-0c0.244-0.242 0.394-0.577 0.394-0.947s-0.151-0.705-0.394-0.947l-0-0z">
            </path>
        </symbol>
    </defs>
</svg>